<svg xmlns="http://www.w3.org/2000/svg" width="154.5" height="142.3" viewBox="0 0 154.5 142.3"><path d="M139.5 104.6a56.2 56.2 0 0 1-6.5 2.9 20.4 20.4 0 0 1-18.4-3.1 21.5 21.5 0 0 1-8.5-11.5c-.4-1.2-.6-2.4-.8-3.6H49.2a21.3 21.3 0 0 1-6.3 12.7 20.9 20.9 0 0 1-11.5 6c-10.9 1.7-18.5-3.4-23-11.1s-3.8-17.7 3.4-25.8a22.3 22.3 0 0 1-6.1-13.6 20.2 20.2 0 0 1 4.1-14.4c6.2-7.7 14-10.8 23.3-8.4S48.6 45.4 49.2 53h56.2a21.5 21.5 0 0 1 4-10.1 21.9 21.9 0 0 1 12.2-8.3 20.2 20.2 0 0 1 11.7.2 53.9 53.9 0 0 1 5.8 2.7h.5l5.6 5.6a28.5 28.5 0 0 1 3.3 7.7 20.3 20.3 0 0 1-1.1 12.7c-1.2 2.6-2.8 5.1-4.3 7.7a23.1 23.1 0 0 1 5.4 10.3 21.1 21.1 0 0 1-1 12.7c-.6 1.6-1.5 3-2.3 4.5zm-23.8-6.8a24.5 24.5 0 0 0 3 2.4c7.9 4.5 17 2.5 21.9-5.2 3.2-5 3.4-10.1.8-15.5-1.2-2.5-3.2-4.2-5.1-6.1a2.7 2.7 0 0 1 0-4.3c1-1 2.1-2 3.1-3.1a14.5 14.5 0 0 0 3.7-11 16 16 0 0 0-25.7-11.7 15.9 15.9 0 0 0-6.4 12.8 3.1 3.1 0 0 1-2.8 2.8H46.4a3.9 3.9 0 0 1-1.9-.8c-1.4-.9-.9-2.5-1-3.8a15.2 15.2 0 0 0-7.6-12.1c-8-4.8-17.1-2.3-21.9 5.3a15.1 15.1 0 0 0-.7 15.3 20.7 20.7 0 0 0 5.1 6.1c1.5 1.4 1.5 2.9.1 4.4l-3.1 3.1a14 14 0 0 0-3.7 10.1 15.7 15.7 0 0 0 5.7 12.1 15.2 15.2 0 0 0 12 3.8 16.1 16.1 0 0 0 14.2-15.9 2.9 2.9 0 0 1 3-3.1H108c1.9 0 2.9 1 3 3a16.1 16.1 0 0 0 4.7 11.3z"/></svg>