<svg xmlns="http://www.w3.org/2000/svg" width="154.5" height="142.3" viewBox="0 0 154.5 142.3"><g fill="#e4bb64"><path d="M116.9 132.3H40.1c-.1-1.2-.2-2.2-.2-3.3V91.4c0-11.1 6.9-17.9 17.9-17.9h41.7c10.2 0 17.3 6.9 17.3 17.2.1 13.6.1 27.4.1 41.6z"/><path d="M52.8 48.1c1 9.7 3.1 13.9 10.5 21.2H52.6c-10.2.3-17.8 7.9-17.9 17.8v11.8H4.3c-.1-.1-.3-.3-.3-.5C4 86 3.7 73.6 4 61.2a13.3 13.3 0 0 1 12.7-13c12-.3 23.9-.1 36.1-.1zm41.9 21.3c6.9-5.9 10.4-12.6 10.6-21.1a15.7 15.7 0 0 1 2.2-.3h27.7c9.5.1 15.4 6 15.4 15.5v35.4h-29.2V88c0-10.6-7.5-18.3-18.1-18.6zm5.8-21.1a21.4 21.4 0 1 1-21.3-21.5 21.4 21.4 0 0 1 21.3 21.5zM51.7 25.9a16 16 0 1 1-32 .3 16 16 0 1 1 32-.3zm65.7 16.3a16.1 16.1 0 1 1 16.2-16.1 16.3 16.3 0 0 1-16.2 16.1z"/></g></svg>