<svg xmlns="http://www.w3.org/2000/svg" width="154.5" height="142.3" viewBox="0 0 154.5 142.3"><g fill="#e4bb64"><path d="M88 138.5c-14 2.3-26.7-.9-38.3-9.2-5-3.6-10.9-4.2-16.8-4.3l-12.8-.2c-5.7-.2-9-3.6-9.1-9.3s-.1-13.8 0-20.7a8.3 8.3 0 0 1 7-8.5c6.2-1.4 12.4-2.9 18.6-4.1a38.6 38.6 0 0 1 28.2 5 38 38 0 0 1 5.9 4c7.8 7.1 17.3 9 27.4 9.7a12.8 12.8 0 0 1 3 .2c7.2 2.3 12.3-.7 17-5.9a67.1 67.1 0 0 1 9.7-8.8c3.3-2.4 7-2.4 10.6-.2s5.4 5.3 5 9.4a11 11 0 0 1-1.9 5.1q-11.6 15.9-23.5 31.7c-2.9 3.9-6.7 6.2-11.9 6s-12 .1-18.1.1zm-69-22.2l.9.4h2.2A64.2 64.2 0 0 1 65.4 129l.3.2c1.9.5 3.8 1.5 5.6 1.5 11.3.1 22.6 0 33.8.1a7.8 7.8 0 0 0 7-3.6c7.2-9.8 14.4-19.5 21.7-29.3 1.1-1.4 3.1-3.1.7-4.6s-3.3.2-4.4 1.1c-4.6 3.9-8.9 8.1-13.2 12.3a4.9 4.9 0 0 0-1.2 3.2c0 7.6-3.4 11.4-11 11.8-3.9.2-7.8.5-11.6.6-21.4.4-16.4 4.3-35.5-9.2-1.5-1.1-3.6-1.7-4.7-3.1s-1.7-3.6-1.1-4.7 3-1.8 4.6-1.8 2.4 1.1 3.6 1.9c3.6 2.4 7.1 5.3 10.9 7.3a19.1 19.1 0 0 0 8.7 2.4c8.4-.1 16.8-.8 25.1-1.4 1.1-.1 2.1-1.2 3.2-1.9-1-.9-2-2.3-3.1-2.5-3.6-.6-7.2-.6-10.8-1-9.4-.8-18.2-3-25.7-9.2a61.8 61.8 0 0 0-7.7-5.4c-7.4-4.5-15.5-5.3-23.9-3.4-5.8 1.3-11.6 2.9-17.7 4.5z"/><path d="M91.6 17.1c5.3-5.9 10.3-10.8 17.2-13 9.3-2.9 20.5.9 27.2 9.2a26.8 26.8 0 0 1 2.5 29.9c-5.7 10.5-13.8 19.1-22.7 26.8-6.6 5.7-13.7 10.9-20.6 16.3-2 1.6-3.9 1.9-6.2.4-14.9-10.6-29-22-39.7-36.9-5.7-7.9-9.1-16.3-6.7-26.3 4-16.7 25.6-28 41.8-14 2.6 2.1 4.7 4.8 7.2 7.6z"/></g></svg>