<svg xmlns="http://www.w3.org/2000/svg"><symbol id="bone" viewBox="0 0 154.5 142.3"><path id="nxbsU4" d="M139.5 104.6a56.2 56.2 0 0 1-6.5 2.9 20.4 20.4 0 0 1-18.4-3.1 21.5 21.5 0 0 1-8.5-11.5c-.4-1.2-.6-2.4-.8-3.6H49.2a21.3 21.3 0 0 1-6.3 12.7 20.9 20.9 0 0 1-11.5 6c-10.9 1.7-18.5-3.4-23-11.1s-3.8-17.7 3.4-25.8a22.3 22.3 0 0 1-6.1-13.6 20.2 20.2 0 0 1 4.1-14.4c6.2-7.7 14-10.8 23.3-8.4S48.6 45.4 49.2 53h56.2a21.5 21.5 0 0 1 4-10.1 21.9 21.9 0 0 1 12.2-8.3 20.2 20.2 0 0 1 11.7.2 53.9 53.9 0 0 1 5.8 2.7h.5l5.6 5.6a28.5 28.5 0 0 1 3.3 7.7 20.3 20.3 0 0 1-1.1 12.7c-1.2 2.6-2.8 5.1-4.3 7.7a23.1 23.1 0 0 1 5.4 10.3 21.1 21.1 0 0 1-1 12.7c-.6 1.6-1.5 3-2.3 4.5zm-23.8-6.8a24.5 24.5 0 0 0 3 2.4c7.9 4.5 17 2.5 21.9-5.2 3.2-5 3.4-10.1.8-15.5-1.2-2.5-3.2-4.2-5.1-6.1a2.7 2.7 0 0 1 0-4.3c1-1 2.1-2 3.1-3.1a14.5 14.5 0 0 0 3.7-11 16 16 0 0 0-25.7-11.7 15.9 15.9 0 0 0-6.4 12.8 3.1 3.1 0 0 1-2.8 2.8H46.4a3.9 3.9 0 0 1-1.9-.8c-1.4-.9-.9-2.5-1-3.8a15.2 15.2 0 0 0-7.6-12.1c-8-4.8-17.1-2.3-21.9 5.3a15.1 15.1 0 0 0-.7 15.3 20.7 20.7 0 0 0 5.1 6.1c1.5 1.4 1.5 2.9.1 4.4l-3.1 3.1a14 14 0 0 0-3.7 10.1 15.7 15.7 0 0 0 5.7 12.1 15.2 15.2 0 0 0 12 3.8 16.1 16.1 0 0 0 14.2-15.9 2.9 2.9 0 0 1 3-3.1H108c1.9 0 2.9 1 3 3a16.1 16.1 0 0 0 4.7 11.3z"/></symbol><symbol id="community" viewBox="0 0 154.5 142.3"><g id="Ccomrq"><path d="M116.9 132.3H40.1c-.1-1.2-.2-2.2-.2-3.3V91.4c0-11.1 6.9-17.9 17.9-17.9h41.7c10.2 0 17.3 6.9 17.3 17.2.1 13.6.1 27.4.1 41.6z"/><path d="M52.8 48.1c1 9.7 3.1 13.9 10.5 21.2H52.6c-10.2.3-17.8 7.9-17.9 17.8v11.8H4.3c-.1-.1-.3-.3-.3-.5C4 86 3.7 73.6 4 61.2a13.3 13.3 0 0 1 12.7-13c12-.3 23.9-.1 36.1-.1zm41.9 21.3c6.9-5.9 10.4-12.6 10.6-21.1a15.7 15.7 0 0 1 2.2-.3h27.7c9.5.1 15.4 6 15.4 15.5v35.4h-29.2V88c0-10.6-7.5-18.3-18.1-18.6zm5.8-21.1a21.4 21.4 0 1 1-21.3-21.5 21.4 21.4 0 0 1 21.3 21.5zM51.7 25.9a16 16 0 1 1-32 .3 16 16 0 1 1 32-.3zm65.7 16.3a16.1 16.1 0 1 1 16.2-16.1 16.3 16.3 0 0 1-16.2 16.1z"/></g></symbol><symbol id="donate" viewBox="0 0 154.5 142.3"><g id="pwFKaO"><path d="M88 138.5c-14 2.3-26.7-.9-38.3-9.2-5-3.6-10.9-4.2-16.8-4.3l-12.8-.2c-5.7-.2-9-3.6-9.1-9.3s-.1-13.8 0-20.7a8.3 8.3 0 0 1 7-8.5c6.2-1.4 12.4-2.9 18.6-4.1a38.6 38.6 0 0 1 28.2 5 38 38 0 0 1 5.9 4c7.8 7.1 17.3 9 27.4 9.7a12.8 12.8 0 0 1 3 .2c7.2 2.3 12.3-.7 17-5.9a67.1 67.1 0 0 1 9.7-8.8c3.3-2.4 7-2.4 10.6-.2s5.4 5.3 5 9.4a11 11 0 0 1-1.9 5.1q-11.6 15.9-23.5 31.7c-2.9 3.9-6.7 6.2-11.9 6s-12 .1-18.1.1zm-69-22.2l.9.4h2.2A64.2 64.2 0 0 1 65.4 129l.3.2c1.9.5 3.8 1.5 5.6 1.5 11.3.1 22.6 0 33.8.1a7.8 7.8 0 0 0 7-3.6c7.2-9.8 14.4-19.5 21.7-29.3 1.1-1.4 3.1-3.1.7-4.6s-3.3.2-4.4 1.1c-4.6 3.9-8.9 8.1-13.2 12.3a4.9 4.9 0 0 0-1.2 3.2c0 7.6-3.4 11.4-11 11.8-3.9.2-7.8.5-11.6.6-21.4.4-16.4 4.3-35.5-9.2-1.5-1.1-3.6-1.7-4.7-3.1s-1.7-3.6-1.1-4.7 3-1.8 4.6-1.8 2.4 1.1 3.6 1.9c3.6 2.4 7.1 5.3 10.9 7.3a19.1 19.1 0 0 0 8.7 2.4c8.4-.1 16.8-.8 25.1-1.4 1.1-.1 2.1-1.2 3.2-1.9-1-.9-2-2.3-3.1-2.5-3.6-.6-7.2-.6-10.8-1-9.4-.8-18.2-3-25.7-9.2a61.8 61.8 0 0 0-7.7-5.4c-7.4-4.5-15.5-5.3-23.9-3.4-5.8 1.3-11.6 2.9-17.7 4.5z"/><path d="M91.6 17.1c5.3-5.9 10.3-10.8 17.2-13 9.3-2.9 20.5.9 27.2 9.2a26.8 26.8 0 0 1 2.5 29.9c-5.7 10.5-13.8 19.1-22.7 26.8-6.6 5.7-13.7 10.9-20.6 16.3-2 1.6-3.9 1.9-6.2.4-14.9-10.6-29-22-39.7-36.9-5.7-7.9-9.1-16.3-6.7-26.3 4-16.7 25.6-28 41.8-14 2.6 2.1 4.7 4.8 7.2 7.6z"/></g></symbol><symbol id="heart-icon" viewBox="0 0 154.5 142.3"><path id="f5xgIu" d="M77.3 23.6c3.2-3.5 6-7.3 9.4-10.4A39.3 39.3 0 0 1 130.4 6c15.3 7.3 22.1 20 22.2 36.7.1 18.3-6.1 34.1-19.5 46.5-18.3 17-37 33.5-56.1 50.7-20.2-18.6-40.7-36.7-60-55.9C3.8 71 .5 53.8 2.6 35.9c1.7-15.3 10.2-26 24.7-31S56 2.6 67.8 13.2c3.4 3 6.2 6.8 9.5 10.4z"/></symbol></svg>