<svg id="Layer_1" data-name="Layer 1" xmlns="http://www.w3.org/2000/svg" width="257" height="256" viewBox="0 0 257 256"><title>logo-256</title><ellipse cx="30.7" cy="132.1" rx="29.5" ry="35.9" fill="#fc6"/><ellipse cx="226.3" cy="132.1" rx="29.5" ry="35.9" fill="#fc6"/><ellipse cx="88.5" cy="67.2" rx="33.9" ry="48" fill="#fc6"/><ellipse cx="162.9" cy="67.2" rx="33.9" ry="48" fill="#fc6"/><path d="M117.7,125.5C54.5,128.4,47,206.6,47,206.6c-1.9,34.9,37.7,27.3,49,24.5s22.6-25.5,52.8-4.7,51.8,8.5,60.3-19.8S180.9,122.7,117.7,125.5Zm45.9,50.6v.7a20,20,0,0,1-1.9,6.5,33.5,33.5,0,0,1-7,9.3l-24.2,23.3a2.4,2.4,0,0,1-3.5,0l-23.4-22.5a40.3,40.3,0,0,1-3.8-4,29.3,29.3,0,0,1-4.3-6.8,20.4,20.4,0,0,1-1.6-5.9,21.6,21.6,0,0,1,.6-7.3,15.4,15.4,0,0,1,9.3-11,21.6,21.6,0,0,1,6.9-1.5,17.2,17.2,0,0,1,8.9,1.7,34.9,34.9,0,0,1,7.2,4.9l1.9,1.7,2.6-2.3a33.8,33.8,0,0,1,6.4-4.3,16.4,16.4,0,0,1,8-1.8l2.8.2a17.8,17.8,0,0,1,6.3,1.8c5.4,2.8,8.1,7.5,8.7,13.4v3.9Z" fill="#fc6"/></svg>