<svg xmlns="http://www.w3.org/2000/svg"><symbol id="logo-16" viewBox="0 0 16.8 16"><ellipse cx="2.3" cy="8.3" fill="#fc6" rx="1.8" ry="2.2"/><ellipse cx="14.5" cy="8.3" fill="#fc6" rx="1.8" ry="2.2"/><ellipse cx="5.9" cy="4.2" fill="#fc6" rx="2.1" ry="3"/><ellipse cx="10.5" cy="4.2" fill="#fc6" rx="2.1" ry="3"/><path fill="#fc6" d="M7.7 7.8c-3.9.2-4.4 5.1-4.4 5.1-.1 2.2 2.4 1.7 3.1 1.5s1.4-1.6 3.3-.3 3.2.5 3.8-1.2-1.8-5.2-5.8-5.1zm2.9 3.2v.4l-.6.6-1.5 1.5h-.2l-1.5-1.4-.2-.2-.3-.4V11a1.3 1.3 0 0 1 0-.5 1 1 0 0 1 .6-.7h1l.4.3h.3l.4-.2h1a1 1 0 0 1 .5.8z"/></symbol><symbol id="logo-32" viewBox="0 0 33 32"><ellipse cx="4.3" cy="16.5" fill="#fc6" rx="3.7" ry="4.5"/><ellipse cx="28.7" cy="16.5" fill="#fc6" rx="3.7" ry="4.5"/><ellipse cx="11.5" cy="8.4" fill="#fc6" rx="4.2" ry="6"/><ellipse cx="20.8" cy="8.4" fill="#fc6" rx="4.2" ry="6"/><path fill="#fc6" d="M15.1 15.7c-7.9.3-8.8 10.1-8.8 10.1-.2 4.4 4.7 3.4 6.1 3.1s2.8-3.2 6.6-.6 6.5 1.1 7.6-2.5-3.5-10.5-11.5-10.1zm5.8 6.3a2.5 2.5 0 0 1-.2.8 4.2 4.2 0 0 1-.9 1.2l-3 2.9a.3.3 0 0 1-.4 0l-2.9-2.8-.5-.5a3.7 3.7 0 0 1-.5-.8 2.6 2.6 0 0 1-.2-.7 2.7 2.7 0 0 1 .1-.9 1.9 1.9 0 0 1 1.2-1.4l.9-.2a2.1 2.1 0 0 1 1.1.2l.9.6.2.2.3-.3.8-.5 1-.2h.2l.8.2a2 2 0 0 1 1.1 1.7v.5z"/></symbol><symbol id="logo-64" viewBox="0 0 65 64"><ellipse cx="8.1" cy="33" fill="#fc6" rx="7.4" ry="9"/><ellipse cx="56.9" cy="33" fill="#fc6" rx="7.4" ry="9"/><ellipse cx="22.5" cy="16.8" fill="#fc6" rx="8.5" ry="12"/><ellipse cx="41.1" cy="16.8" fill="#fc6" rx="8.5" ry="12"/><path fill="#fc6" d="M29.8 31.4c-15.8.7-17.7 20.2-17.7 20.2-.5 8.7 9.4 6.8 12.2 6.1s5.7-6.4 13.2-1.2 12.9 2.1 15.1-4.9-7-20.9-22.8-20.2zM41.3 44v.2a5 5 0 0 1-.5 1.6 8.4 8.4 0 0 1-1.8 2.3L33 54a.6.6 0 0 1-.9 0l-5.8-5.6-.9-1a7.3 7.3 0 0 1-1.1-1.7 5.1 5.1 0 0 1-.4-1.5 5.4 5.4 0 0 1 .1-1.8 3.8 3.8 0 0 1 2.3-2.7 5.4 5.4 0 0 1 1.7-.4 4.3 4.3 0 0 1 2.2.4 8.7 8.7 0 0 1 1.8 1.2l.5.4.6-.6a8.4 8.4 0 0 1 1.6-1.1 4.1 4.1 0 0 1 2-.5h.7a4.4 4.4 0 0 1 1.6.5 4 4 0 0 1 2.2 3.3v1z"/></symbol><symbol id="logo-256" viewBox="0 0 257 256"><ellipse cx="30.7" cy="132.1" fill="#fc6" rx="29.5" ry="35.9"/><ellipse cx="226.3" cy="132.1" fill="#fc6" rx="29.5" ry="35.9"/><ellipse cx="88.5" cy="67.2" fill="#fc6" rx="33.9" ry="48"/><ellipse cx="162.9" cy="67.2" fill="#fc6" rx="33.9" ry="48"/><path fill="#fc6" d="M117.7 125.5C54.5 128.4 47 206.6 47 206.6c-1.9 34.9 37.7 27.3 49 24.5s22.6-25.5 52.8-4.7 51.8 8.5 60.3-19.8-28.2-83.9-91.4-81.1zm45.9 50.6v.7a20 20 0 0 1-1.9 6.5 33.5 33.5 0 0 1-7 9.3l-24.2 23.3a2.4 2.4 0 0 1-3.5 0l-23.4-22.5a40.3 40.3 0 0 1-3.8-4 29.3 29.3 0 0 1-4.3-6.8 20.4 20.4 0 0 1-1.6-5.9 21.6 21.6 0 0 1 .6-7.3 15.4 15.4 0 0 1 9.3-11 21.6 21.6 0 0 1 6.9-1.5 17.2 17.2 0 0 1 8.9 1.7 34.9 34.9 0 0 1 7.2 4.9l1.9 1.7 2.6-2.3a33.8 33.8 0 0 1 6.4-4.3 16.4 16.4 0 0 1 8-1.8l2.8.2a17.8 17.8 0 0 1 6.3 1.8c5.4 2.8 8.1 7.5 8.7 13.4v3.9z"/></symbol></svg>