<svg xmlns="http://www.w3.org/2000/svg" width="65" height="64" data-name="Layer 1" viewBox="0 0 65 64"><ellipse cx="8.1" cy="33" fill="#cc4342" rx="7.4" ry="9"/><ellipse cx="56.9" cy="33" fill="#cc4342" rx="7.4" ry="9"/><ellipse cx="22.5" cy="16.8" fill="#cc4342" rx="8.5" ry="12"/><ellipse cx="41.1" cy="16.8" fill="#cc4342" rx="8.5" ry="12"/><path fill="#cc4342" d="M29.8 31.4c-15.8.7-17.7 20.2-17.7 20.2-.5 8.7 9.4 6.8 12.2 6.1s5.7-6.4 13.2-1.2 12.9 2.1 15.1-4.9-7-20.9-22.8-20.2zM41.3 44v.2a5 5 0 0 1-.5 1.6 8.4 8.4 0 0 1-1.8 2.3L33 54a.6.6 0 0 1-.9 0l-5.8-5.6-.9-1a7.3 7.3 0 0 1-1.1-1.7 5.1 5.1 0 0 1-.4-1.5 5.4 5.4 0 0 1 .1-1.8 3.8 3.8 0 0 1 2.3-2.7 5.4 5.4 0 0 1 1.7-.4 4.3 4.3 0 0 1 2.2.4 8.7 8.7 0 0 1 1.8 1.2l.5.4.6-.6a8.4 8.4 0 0 1 1.6-1.1 4.1 4.1 0 0 1 2-.5h.7a4.4 4.4 0 0 1 1.6.5 4 4 0 0 1 2.2 3.3v1z"/></svg>