<svg id="Layer_1" data-name="Layer 1" xmlns="http://www.w3.org/2000/svg" width="33" height="32" viewBox="0 0 33 32"><title>logo-32</title><ellipse cx="4.3" cy="16.5" rx="3.7" ry="4.5" fill="#fc6"/><ellipse cx="28.7" cy="16.5" rx="3.7" ry="4.5" fill="#fc6"/><ellipse cx="11.5" cy="8.4" rx="4.2" ry="6" fill="#fc6"/><ellipse cx="20.8" cy="8.4" rx="4.2" ry="6" fill="#fc6"/><path d="M15.1,15.7C7.2,16,6.3,25.8,6.3,25.8c-.2,4.4,4.7,3.4,6.1,3.1s2.8-3.2,6.6-.6,6.5,1.1,7.6-2.5S23.1,15.3,15.1,15.7ZM20.9,22h0a2.5,2.5,0,0,1-.2.8,4.2,4.2,0,0,1-.9,1.2l-3,2.9a.3.3,0,0,1-.4,0l-2.9-2.8-.5-.5a3.7,3.7,0,0,1-.5-.8,2.6,2.6,0,0,1-.2-.7,2.7,2.7,0,0,1,.1-.9,1.9,1.9,0,0,1,1.2-1.4l.9-.2a2.1,2.1,0,0,1,1.1.2l.9.6.2.2.3-.3.8-.5,1-.2H19l.8.2a2,2,0,0,1,1.1,1.7V22Z" fill="#fc6"/></svg>